<svg xmlns="http://www.w3.org/2000/svg" width="187.5" viewBox="0 0 187.5 187.5" height="187.5" version="1.0"><defs><clipPath id="a"><path d="M 81 64.234375 L 107 64.234375 L 107 69 L 81 69 Z M 81 64.234375"/></clipPath><clipPath id="b"><path d="M 56.25 98 L 131.25 98 L 131.25 100.984375 L 56.25 100.984375 Z M 56.25 98"/></clipPath></defs><path fill="#5A3114" d="M 89.769531 92.019531 L 89.253906 90.53125 L 98.246094 90.53125 L 97.730469 92.019531 Z M 83.363281 73.414062 L 104.136719 73.414062 L 98.980469 88.390625 L 88.519531 88.390625 Z M 80.636719 70.300781 L 88.644531 93.578125 L 98.855469 93.578125 L 106.863281 70.300781 L 80.636719 70.300781"/><g clip-path="url(#a)"><path fill="#5A3114" d="M 105.421875 67.632812 L 103.640625 67.632812 L 102.105469 65.15625 C 101.75 64.585938 101.125 64.238281 100.449219 64.238281 L 87.050781 64.238281 C 86.375 64.238281 85.75 64.585938 85.394531 65.15625 L 83.859375 67.632812 L 82.078125 67.632812 C 81.691406 67.632812 81.378906 67.960938 81.402344 68.351562 C 81.425781 68.707031 81.742188 68.976562 82.101562 68.976562 L 105.398438 68.976562 C 105.757812 68.976562 106.074219 68.707031 106.097656 68.351562 C 106.121094 67.960938 105.808594 67.632812 105.421875 67.632812"/></g><path fill="#5A3114" d="M 98.460938 78.707031 C 98.328125 78.144531 98.054688 77.679688 97.75 77.316406 C 97.121094 76.5625 95.9375 76.628906 95.378906 77.4375 C 94.757812 78.339844 94.347656 79.632812 94.601562 81.464844 C 94.875 83.425781 94.539062 84.84375 93.601562 85.679688 C 93.488281 85.78125 93.375 85.867188 93.253906 85.945312 C 94.609375 85.765625 96.015625 85 97.085938 83.730469 C 98.390625 82.175781 98.824219 80.265625 98.460938 78.707031"/><path fill="#5A3114" d="M 93.59375 81.605469 C 93.191406 78.714844 94.265625 76.964844 95.300781 75.984375 C 93.65625 75.816406 91.765625 76.613281 90.421875 78.21875 C 89.011719 79.898438 88.601562 81.988281 89.15625 83.601562 C 90.0625 86.230469 92.183594 85.835938 92.921875 84.925781 C 93.492188 84.230469 93.816406 83.207031 93.59375 81.605469"/><path fill="#5A3114" d="M 117.230469 95.800781 L 70.269531 95.800781 L 70.269531 93.472656 L 117.230469 93.472656 L 117.230469 95.800781"/><g clip-path="url(#b)"><path fill="#5A3114" d="M 131.222656 100.988281 L 56.277344 100.988281 L 56.277344 98.65625 L 131.222656 98.65625 L 131.222656 100.988281"/></g><g fill="#3C3B3C"><g><g><path d="M 2.625 -3.039062 L 2.636719 -3.039062 L 4.660156 0 L 7.035156 0 L 4.597656 -3.125 C 5.675781 -3.386719 6.535156 -4.335938 6.535156 -5.773438 C 6.535156 -7.386719 5.3125 -8.5 3.9375 -8.5 L 0.75 -8.5 L 0.75 0 L 2.625 0 Z M 3.625 -7.023438 C 4.175781 -7.023438 4.75 -6.550781 4.75 -5.773438 C 4.75 -4.960938 4.175781 -4.511719 3.625 -4.511719 L 2.625 -4.511719 L 2.625 -7.023438 Z M 3.625 -7.023438" transform="translate(90.307 114.64)"/></g></g></g><g fill="#452010"><g><g><path d="M 1.203125 -1.984375 L 1.453125 -1.984375 C 1.691406 -1.984375 1.867188 -2.019531 1.984375 -2.09375 C 2.097656 -2.175781 2.15625 -2.304688 2.15625 -2.484375 C 2.15625 -2.648438 2.09375 -2.769531 1.96875 -2.84375 C 1.851562 -2.914062 1.675781 -2.953125 1.4375 -2.953125 L 1.203125 -2.953125 Z M 1.203125 -1.375 L 1.203125 0 L 0.453125 0 L 0.453125 -3.5625 L 1.484375 -3.5625 C 1.972656 -3.5625 2.332031 -3.472656 2.5625 -3.296875 C 2.800781 -3.128906 2.921875 -2.863281 2.921875 -2.5 C 2.921875 -2.289062 2.859375 -2.101562 2.734375 -1.9375 C 2.617188 -1.769531 2.457031 -1.644531 2.25 -1.5625 C 2.789062 -0.757812 3.140625 -0.238281 3.296875 0 L 2.46875 0 L 1.609375 -1.375 Z M 1.203125 -1.375" transform="translate(76.401 122.266)"/></g></g></g><g fill="#452010"><g><g><path d="M 0.453125 0 L 0.453125 -3.5625 L 1.203125 -3.5625 L 1.203125 0 Z M 0.453125 0" transform="translate(80.166 122.266)"/></g></g></g><g fill="#452010"><g><g><path d="M 2.5625 -0.984375 C 2.5625 -0.671875 2.441406 -0.421875 2.203125 -0.234375 C 1.972656 -0.046875 1.648438 0.046875 1.234375 0.046875 C 0.859375 0.046875 0.523438 -0.0234375 0.234375 -0.171875 L 0.234375 -0.875 C 0.472656 -0.757812 0.675781 -0.679688 0.84375 -0.640625 C 1.007812 -0.597656 1.160156 -0.578125 1.296875 -0.578125 C 1.460938 -0.578125 1.585938 -0.609375 1.671875 -0.671875 C 1.765625 -0.734375 1.8125 -0.828125 1.8125 -0.953125 C 1.8125 -1.023438 1.789062 -1.085938 1.75 -1.140625 C 1.71875 -1.191406 1.660156 -1.242188 1.578125 -1.296875 C 1.503906 -1.347656 1.351562 -1.429688 1.125 -1.546875 C 0.90625 -1.640625 0.738281 -1.734375 0.625 -1.828125 C 0.519531 -1.929688 0.429688 -2.046875 0.359375 -2.171875 C 0.296875 -2.296875 0.265625 -2.441406 0.265625 -2.609375 C 0.265625 -2.921875 0.367188 -3.164062 0.578125 -3.34375 C 0.796875 -3.53125 1.097656 -3.625 1.484375 -3.625 C 1.671875 -3.625 1.847656 -3.597656 2.015625 -3.546875 C 2.179688 -3.503906 2.359375 -3.445312 2.546875 -3.375 L 2.296875 -2.78125 C 2.109375 -2.851562 1.953125 -2.90625 1.828125 -2.9375 C 1.703125 -2.96875 1.578125 -2.984375 1.453125 -2.984375 C 1.304688 -2.984375 1.195312 -2.953125 1.125 -2.890625 C 1.050781 -2.828125 1.015625 -2.738281 1.015625 -2.625 C 1.015625 -2.5625 1.03125 -2.503906 1.0625 -2.453125 C 1.09375 -2.398438 1.140625 -2.347656 1.203125 -2.296875 C 1.273438 -2.253906 1.4375 -2.175781 1.6875 -2.0625 C 2.019531 -1.90625 2.25 -1.742188 2.375 -1.578125 C 2.5 -1.421875 2.5625 -1.222656 2.5625 -0.984375 Z M 2.5625 -0.984375" transform="translate(82.286 122.266)"/></g></g></g><g fill="#452010"><g><g><path d="M 2.5 0 L 0.453125 0 L 0.453125 -3.5625 L 2.5 -3.5625 L 2.5 -2.953125 L 1.203125 -2.953125 L 1.203125 -2.171875 L 2.421875 -2.171875 L 2.421875 -1.546875 L 1.203125 -1.546875 L 1.203125 -0.625 L 2.5 -0.625 Z M 2.5 0" transform="translate(85.503 122.266)"/></g></g></g><g fill="#452010"><g><g><path d="M 1.96875 -2.984375 C 1.675781 -2.984375 1.453125 -2.875 1.296875 -2.65625 C 1.140625 -2.445312 1.0625 -2.15625 1.0625 -1.78125 C 1.0625 -0.976562 1.363281 -0.578125 1.96875 -0.578125 C 2.21875 -0.578125 2.519531 -0.640625 2.875 -0.765625 L 2.875 -0.140625 C 2.582031 -0.015625 2.253906 0.046875 1.890625 0.046875 C 1.367188 0.046875 0.972656 -0.109375 0.703125 -0.421875 C 0.429688 -0.734375 0.296875 -1.1875 0.296875 -1.78125 C 0.296875 -2.15625 0.363281 -2.476562 0.5 -2.75 C 0.632812 -3.03125 0.828125 -3.242188 1.078125 -3.390625 C 1.328125 -3.546875 1.625 -3.625 1.96875 -3.625 C 2.3125 -3.625 2.660156 -3.539062 3.015625 -3.375 L 2.765625 -2.75 C 2.628906 -2.8125 2.492188 -2.863281 2.359375 -2.90625 C 2.222656 -2.957031 2.09375 -2.984375 1.96875 -2.984375 Z M 1.96875 -2.984375" transform="translate(90.53 122.266)"/></g></g></g><g fill="#452010"><g><g><path d="M 3.6875 -1.796875 C 3.6875 -1.203125 3.539062 -0.742188 3.25 -0.421875 C 2.957031 -0.109375 2.535156 0.046875 1.984375 0.046875 C 1.441406 0.046875 1.023438 -0.109375 0.734375 -0.421875 C 0.441406 -0.742188 0.296875 -1.203125 0.296875 -1.796875 C 0.296875 -2.390625 0.441406 -2.84375 0.734375 -3.15625 C 1.023438 -3.46875 1.445312 -3.625 2 -3.625 C 2.539062 -3.625 2.957031 -3.460938 3.25 -3.140625 C 3.539062 -2.828125 3.6875 -2.378906 3.6875 -1.796875 Z M 1.078125 -1.796875 C 1.078125 -1.390625 1.148438 -1.085938 1.296875 -0.890625 C 1.453125 -0.691406 1.679688 -0.59375 1.984375 -0.59375 C 2.585938 -0.59375 2.890625 -0.992188 2.890625 -1.796875 C 2.890625 -2.597656 2.59375 -3 2 -3 C 1.695312 -3 1.46875 -2.894531 1.3125 -2.6875 C 1.15625 -2.488281 1.078125 -2.191406 1.078125 -1.796875 Z M 1.078125 -1.796875" transform="translate(94.18 122.266)"/></g></g></g><g fill="#452010"><g><g><path d="M 1.1875 0 L 0.453125 0 L 0.453125 -3.5625 L 2.5 -3.5625 L 2.5 -2.953125 L 1.1875 -2.953125 L 1.1875 -2.03125 L 2.40625 -2.03125 L 2.40625 -1.40625 L 1.1875 -1.40625 Z M 1.1875 0" transform="translate(98.624 122.266)"/></g></g></g><g fill="#452010"><g><g><path d="M 1.1875 0 L 0.453125 0 L 0.453125 -3.5625 L 2.5 -3.5625 L 2.5 -2.953125 L 1.1875 -2.953125 L 1.1875 -2.03125 L 2.40625 -2.03125 L 2.40625 -1.40625 L 1.1875 -1.40625 Z M 1.1875 0" transform="translate(101.832 122.266)"/></g></g></g><g fill="#452010"><g><g><path d="M 2.5 0 L 0.453125 0 L 0.453125 -3.5625 L 2.5 -3.5625 L 2.5 -2.953125 L 1.203125 -2.953125 L 1.203125 -2.171875 L 2.421875 -2.171875 L 2.421875 -1.546875 L 1.203125 -1.546875 L 1.203125 -0.625 L 2.5 -0.625 Z M 2.5 0" transform="translate(105.04 122.266)"/></g></g></g><g fill="#452010"><g><g><path d="M 2.5 0 L 0.453125 0 L 0.453125 -3.5625 L 2.5 -3.5625 L 2.5 -2.953125 L 1.203125 -2.953125 L 1.203125 -2.171875 L 2.421875 -2.171875 L 2.421875 -1.546875 L 1.203125 -1.546875 L 1.203125 -0.625 L 2.5 -0.625 Z M 2.5 0" transform="translate(108.304 122.266)"/></g></g></g></svg>