<svg xmlns="http://www.w3.org/2000/svg" width="375" viewBox="0 0 375 375" height="375" version="1.0"><g fill="#2B2B2B"><g><g><path d="M 145.8125 -2.546875 C 146.238281 -2.546875 146.453125 -2.117188 146.453125 -1.265625 C 146.453125 -0.421875 146.238281 0 145.8125 0 L 116.734375 0 C 113.335938 0 106.9375 -5.765625 97.53125 -17.296875 C 88.125 -28.828125 76.625 -44.921875 63.03125 -65.578125 C 59.21875 -64.878906 55.679688 -64.53125 52.421875 -64.53125 C 51.710938 -64.53125 48.390625 -64.738281 42.453125 -65.15625 L 42.453125 -17.1875 C 42.453125 -12.800781 42.875 -9.617188 43.71875 -7.640625 C 44.570312 -5.660156 46.203125 -4.316406 48.609375 -3.609375 C 51.015625 -2.898438 54.832031 -2.546875 60.0625 -2.546875 C 60.488281 -2.546875 60.703125 -2.117188 60.703125 -1.265625 C 60.703125 -0.421875 60.488281 0 60.0625 0 C 55.539062 0 52.078125 -0.0703125 49.671875 -0.21875 L 34.59375 -0.421875 L 19.953125 -0.21875 C 17.265625 -0.0703125 13.65625 0 9.125 0 C 8.84375 0 8.703125 -0.421875 8.703125 -1.265625 C 8.703125 -2.117188 8.84375 -2.546875 9.125 -2.546875 C 14.363281 -2.546875 18.1875 -2.898438 20.59375 -3.609375 C 23 -4.316406 24.660156 -5.695312 25.578125 -7.75 C 26.492188 -9.800781 26.953125 -12.945312 26.953125 -17.1875 L 26.953125 -115.46875 C 26.953125 -119.707031 26.523438 -122.816406 25.671875 -124.796875 C 24.828125 -126.785156 23.203125 -128.164062 20.796875 -128.9375 C 18.390625 -129.71875 14.640625 -130.109375 9.546875 -130.109375 C 9.128906 -130.109375 8.921875 -130.53125 8.921875 -131.375 C 8.921875 -132.226562 9.128906 -132.65625 9.546875 -132.65625 L 19.953125 -132.4375 C 25.890625 -132.15625 30.769531 -132.015625 34.59375 -132.015625 C 37.5625 -132.015625 40.390625 -132.082031 43.078125 -132.21875 C 45.773438 -132.363281 48.113281 -132.507812 50.09375 -132.65625 C 55.320312 -133.082031 60.203125 -133.296875 64.734375 -133.296875 C 76.054688 -133.296875 84.863281 -130.78125 91.15625 -125.75 C 97.457031 -120.726562 100.609375 -113.972656 100.609375 -105.484375 C 100.609375 -97.847656 98.378906 -90.914062 93.921875 -84.6875 C 89.460938 -78.457031 83.554688 -73.578125 76.203125 -70.046875 C 88.085938 -52.921875 98.023438 -39.546875 106.015625 -29.921875 C 114.015625 -20.304688 121.160156 -13.335938 127.453125 -9.015625 C 133.753906 -4.703125 139.875 -2.546875 145.8125 -2.546875 Z M 42.453125 -70.25 C 46.410156 -69.832031 50.582031 -69.625 54.96875 -69.625 C 65.582031 -69.625 73.148438 -71.992188 77.671875 -76.734375 C 82.203125 -81.472656 84.46875 -88.863281 84.46875 -98.90625 C 84.46875 -110.082031 82.132812 -118.039062 77.46875 -122.78125 C 72.800781 -127.519531 66.082031 -129.890625 57.3125 -129.890625 C 51.789062 -129.890625 47.929688 -128.863281 45.734375 -126.8125 C 43.546875 -124.757812 42.453125 -120.835938 42.453125 -115.046875 Z M 42.453125 -70.25" transform="translate(115.54 255.131)"/></g></g></g><path fill="#F8F8F8" d="M 28.816406 174.640625 L 345.972656 174.640625 L 345.972656 211.390625 L 28.816406 211.390625 L 28.816406 174.640625"/><g fill="#2B2B2B"><g><g><path d="M 2.765625 -4.71875 C 2.703125 -4.789062 2.648438 -4.578125 2.609375 -4.078125 C 2.566406 -3.578125 2.546875 -2.925781 2.546875 -2.125 C 2.546875 -1.320312 2.554688 -0.507812 2.578125 0.3125 C 2.597656 1.144531 2.644531 1.835938 2.71875 2.390625 C 2.789062 2.941406 2.875 3.21875 2.96875 3.21875 C 3.039062 3.09375 3.082031 2.660156 3.09375 1.921875 C 3.101562 1.191406 3.09375 0.351562 3.0625 -0.59375 C 3.03125 -1.539062 2.988281 -2.410156 2.9375 -3.203125 C 2.894531 -3.992188 2.835938 -4.5 2.765625 -4.71875 Z M 5.046875 -3.28125 C 5.015625 -2.5625 4.976562 -1.84375 4.9375 -1.125 C 4.894531 0.09375 4.835938 1.316406 4.765625 2.546875 C 4.671875 3.992188 4.554688 5.441406 4.421875 6.890625 C 4.367188 7.285156 4.28125 7.671875 4.15625 8.046875 C 3.988281 8.679688 3.601562 9 3 9 C 2.363281 9.03125 1.957031 8.726562 1.78125 8.09375 C 1.644531 7.457031 1.539062 6.8125 1.46875 6.15625 C 1.101562 2.226562 0.898438 -1.707031 0.859375 -5.65625 C 0.835938 -6.96875 0.835938 -8.269531 0.859375 -9.5625 C 0.867188 -10.175781 1.191406 -10.460938 1.828125 -10.421875 C 2.316406 -10.398438 2.570312 -10.148438 2.59375 -9.671875 C 2.601562 -9.128906 2.609375 -8.582031 2.609375 -8.03125 C 2.609375 -7.632812 2.617188 -7.226562 2.640625 -6.8125 C 2.640625 -6.675781 2.664062 -6.535156 2.71875 -6.390625 C 2.726562 -6.328125 2.734375 -6.28125 2.734375 -6.25 C 2.734375 -6.226562 2.742188 -6.21875 2.765625 -6.21875 C 2.785156 -6.21875 2.800781 -6.21875 2.8125 -6.21875 C 2.832031 -6.21875 2.851562 -6.21875 2.875 -6.21875 C 2.882812 -6.21875 2.898438 -6.222656 2.921875 -6.234375 C 2.953125 -6.242188 2.976562 -6.257812 3 -6.28125 C 3 -6.320312 3.003906 -6.363281 3.015625 -6.40625 C 3.078125 -6.5625 3.113281 -6.707031 3.125 -6.84375 C 3.164062 -7.84375 3.1875 -8.84375 3.1875 -9.84375 C 3.1875 -10.582031 3.191406 -11.328125 3.203125 -12.078125 C 3.222656 -14.234375 3.222656 -16.394531 3.203125 -18.5625 C 3.191406 -19.945312 3.148438 -21.332031 3.078125 -22.71875 C 3.035156 -23.320312 3.007812 -23.9375 3 -24.5625 C 3 -24.6875 2.988281 -24.804688 2.96875 -24.921875 C 2.957031 -25.148438 2.953125 -25.375 2.953125 -25.59375 C 2.984375 -26.375 3.363281 -26.703125 4.09375 -26.578125 C 4.476562 -26.503906 4.707031 -26.269531 4.78125 -25.875 C 4.800781 -25.6875 4.832031 -25.5 4.875 -25.3125 C 4.9375 -24.8125 4.984375 -24.300781 5.015625 -23.78125 C 5.085938 -21.644531 5.125 -19.5 5.125 -17.34375 C 5.125 -15.238281 5.113281 -13.140625 5.09375 -11.046875 C 5.09375 -10.085938 5.082031 -9.132812 5.0625 -8.1875 C 5.0625 -8.125 5.0625 -8.054688 5.0625 -7.984375 C 5.0625 -7.648438 5.0625 -7.320312 5.0625 -7 C 5.082031 -6.71875 5.144531 -6.53125 5.25 -6.4375 C 5.351562 -6.34375 5.539062 -6.3125 5.8125 -6.34375 C 9.507812 -6.625 13.019531 -7.566406 16.34375 -9.171875 C 18.207031 -10.066406 19.890625 -11.226562 21.390625 -12.65625 C 22.503906 -13.75 23.332031 -14.851562 23.875 -15.96875 C 24.425781 -17.082031 24.75 -18.148438 24.84375 -19.171875 C 24.9375 -20.191406 24.878906 -21.144531 24.671875 -22.03125 C 24.316406 -23.539062 23.515625 -24.847656 22.265625 -25.953125 C 21.015625 -27.054688 19.457031 -27.914062 17.59375 -28.53125 C 15.726562 -29.144531 13.691406 -29.460938 11.484375 -29.484375 C 9.285156 -29.515625 7.066406 -29.21875 4.828125 -28.59375 C 3.140625 -28.132812 1.519531 -27.488281 -0.03125 -26.65625 C -0.90625 -26.1875 -1.710938 -25.609375 -2.453125 -24.921875 C -2.796875 -24.609375 -3.085938 -24.269531 -3.328125 -23.90625 C -3.578125 -23.550781 -3.691406 -23.125 -3.671875 -22.625 C -3.671875 -22.445312 -3.726562 -22.316406 -3.84375 -22.234375 C -3.96875 -22.148438 -4.117188 -22.097656 -4.296875 -22.078125 C -4.484375 -22.066406 -4.679688 -22.078125 -4.890625 -22.109375 C -5.265625 -22.191406 -5.476562 -22.429688 -5.53125 -22.828125 C -5.550781 -23.222656 -5.46875 -23.613281 -5.28125 -24 C -4.976562 -24.582031 -4.585938 -25.097656 -4.109375 -25.546875 C -3.554688 -26.097656 -2.957031 -26.578125 -2.3125 -26.984375 C -1.664062 -27.398438 -0.988281 -27.773438 -0.28125 -28.109375 C 2.59375 -29.453125 5.617188 -30.28125 8.796875 -30.59375 C 10.140625 -30.726562 11.59375 -30.75 13.15625 -30.65625 C 14.726562 -30.5625 16.296875 -30.316406 17.859375 -29.921875 C 19.421875 -29.535156 20.867188 -28.972656 22.203125 -28.234375 C 23.535156 -27.492188 24.644531 -26.535156 25.53125 -25.359375 C 26.414062 -24.191406 26.957031 -22.789062 27.15625 -21.15625 C 27.257812 -20.101562 27.191406 -19.082031 26.953125 -18.09375 C 26.710938 -17.113281 26.34375 -16.15625 25.84375 -15.21875 C 24.894531 -13.550781 23.660156 -12.125 22.140625 -10.9375 C 20.710938 -9.800781 19.191406 -8.847656 17.578125 -8.078125 C 15.960938 -7.304688 14.273438 -6.679688 12.515625 -6.203125 C 10.878906 -5.753906 9.21875 -5.441406 7.53125 -5.265625 C 7.425781 -5.265625 7.320312 -5.257812 7.21875 -5.25 C 7.195312 -5.226562 7.171875 -5.21875 7.140625 -5.21875 C 7.066406 -5.21875 7.007812 -5.203125 6.96875 -5.171875 C 6.925781 -5.148438 6.894531 -5.101562 6.875 -5.03125 C 6.84375 -4.875 6.914062 -4.769531 7.09375 -4.71875 C 7.25 -4.65625 7.398438 -4.59375 7.546875 -4.53125 C 7.671875 -4.488281 7.800781 -4.441406 7.9375 -4.390625 C 10.632812 -3.367188 13.257812 -2.203125 15.8125 -0.890625 C 18.375 0.410156 20.878906 1.8125 23.328125 3.3125 C 23.640625 3.488281 23.925781 3.695312 24.1875 3.9375 C 24.238281 3.976562 24.269531 4.035156 24.28125 4.109375 C 24.300781 4.179688 24.3125 4.253906 24.3125 4.328125 C 24.300781 4.453125 24.257812 4.539062 24.1875 4.59375 C 24.113281 4.65625 24.023438 4.703125 23.921875 4.734375 C 23.503906 4.847656 23.125 4.78125 22.78125 4.53125 C 21.789062 4 20.785156 3.476562 19.765625 2.96875 C 18.660156 2.363281 17.546875 1.765625 16.421875 1.171875 C 14.785156 0.296875 13.125 -0.515625 11.4375 -1.265625 C 9.75 -2.015625 8.039062 -2.738281 6.3125 -3.4375 C 6.257812 -3.445312 6.207031 -3.46875 6.15625 -3.5 C 6 -3.570312 5.835938 -3.632812 5.671875 -3.6875 C 5.515625 -3.738281 5.375 -3.738281 5.25 -3.6875 C 5.125 -3.632812 5.054688 -3.5 5.046875 -3.28125 Z M 5.046875 -3.28125" transform="translate(44.32 202.9)"/></g></g></g><g fill="#2B2B2B"><g><g><path d="M 17.328125 -6.09375 C 17.753906 -6.039062 17.972656 -5.925781 17.984375 -5.75 C 18.003906 -5.570312 17.921875 -5.378906 17.734375 -5.171875 C 17.546875 -4.972656 17.34375 -4.816406 17.125 -4.703125 C 16.382812 -4.210938 15.679688 -3.679688 15.015625 -3.109375 C 14.347656 -2.546875 13.695312 -1.960938 13.0625 -1.359375 C 12.507812 -0.859375 12.191406 -0.210938 12.109375 0.578125 C 11.984375 1.597656 11.785156 2.847656 11.515625 4.328125 C 11.253906 5.804688 10.90625 7.332031 10.46875 8.90625 C 10.039062 10.488281 9.523438 11.9375 8.921875 13.25 C 8.316406 14.5625 7.617188 15.570312 6.828125 16.28125 C 6.441406 16.582031 6.035156 16.769531 5.609375 16.84375 C 5.179688 16.914062 4.742188 16.890625 4.296875 16.765625 C 3.847656 16.648438 3.515625 16.429688 3.296875 16.109375 C 3.078125 15.796875 2.941406 15.421875 2.890625 14.984375 C 2.753906 13.804688 2.90625 12.488281 3.34375 11.03125 C 3.789062 9.582031 4.359375 8.164062 5.046875 6.78125 C 5.734375 5.40625 6.394531 4.242188 7.03125 3.296875 C 7.769531 2.097656 8.609375 0.984375 9.546875 -0.046875 C 10.023438 -0.578125 10.289062 -1.203125 10.34375 -1.921875 C 10.457031 -3.128906 10.578125 -4.96875 10.703125 -7.4375 C 10.828125 -9.90625 10.890625 -12.570312 10.890625 -15.4375 C 10.890625 -18.3125 10.769531 -20.976562 10.53125 -23.4375 C 10.289062 -25.894531 9.867188 -27.71875 9.265625 -28.90625 C 9.085938 -29.195312 8.878906 -29.472656 8.640625 -29.734375 C 8.328125 -30.078125 7.960938 -30.15625 7.546875 -29.96875 C 7.085938 -29.757812 6.671875 -29.5 6.296875 -29.1875 C 5.210938 -28.300781 4.316406 -27.300781 3.609375 -26.1875 C 2.898438 -25.070312 2.398438 -23.820312 2.109375 -22.4375 C 1.910156 -21.394531 1.925781 -20.351562 2.15625 -19.3125 C 2.300781 -18.625 2.566406 -18.035156 2.953125 -17.546875 C 3.335938 -17.066406 3.867188 -16.71875 4.546875 -16.5 C 4.585938 -16.476562 4.613281 -16.46875 4.625 -16.46875 C 4.757812 -16.425781 4.882812 -16.375 5 -16.3125 C 5.113281 -16.25 5.179688 -16.128906 5.203125 -15.953125 C 5.179688 -15.671875 4.90625 -15.515625 4.375 -15.484375 C 3.75 -15.453125 3.179688 -15.585938 2.671875 -15.890625 C 1.859375 -16.378906 1.253906 -16.976562 0.859375 -17.6875 C 0.460938 -18.40625 0.226562 -19.210938 0.15625 -20.109375 C 0.0507812 -21.472656 0.222656 -22.804688 0.671875 -24.109375 C 1.546875 -26.515625 2.988281 -28.519531 5 -30.125 C 5.863281 -30.851562 6.867188 -31.238281 8.015625 -31.28125 C 9.460938 -31.300781 10.515625 -30.675781 11.171875 -29.40625 C 11.742188 -28.28125 12.160156 -26.597656 12.421875 -24.359375 C 12.691406 -22.117188 12.851562 -19.675781 12.90625 -17.03125 C 12.957031 -14.394531 12.941406 -11.921875 12.859375 -9.609375 C 12.785156 -7.304688 12.695312 -5.519531 12.59375 -4.25 C 12.53125 -3.75 12.546875 -3.460938 12.640625 -3.390625 C 12.742188 -3.328125 13 -3.441406 13.40625 -3.734375 C 13.78125 -4.015625 14.164062 -4.300781 14.5625 -4.59375 C 14.851562 -4.8125 15.15625 -5.03125 15.46875 -5.25 C 15.6875 -5.4375 15.976562 -5.628906 16.34375 -5.828125 C 16.707031 -6.023438 17.035156 -6.113281 17.328125 -6.09375 Z M 9.515625 4.09375 C 9.640625 3.28125 9.625 2.921875 9.46875 3.015625 C 9.3125 3.109375 9.070312 3.4375 8.75 4 C 8.363281 4.550781 7.898438 5.390625 7.359375 6.515625 C 6.816406 7.640625 6.316406 8.859375 5.859375 10.171875 C 5.554688 11.140625 5.304688 12.039062 5.109375 12.875 C 4.921875 13.707031 4.816406 14.378906 4.796875 14.890625 C 4.785156 15.398438 4.890625 15.632812 5.109375 15.59375 C 5.328125 15.550781 5.675781 15.132812 6.15625 14.34375 C 7.019531 12.90625 7.722656 11.242188 8.265625 9.359375 C 8.816406 7.484375 9.234375 5.726562 9.515625 4.09375 Z M 9.515625 4.09375" transform="translate(68.156 202.9)"/></g></g></g><g fill="#2B2B2B"><g><g><path d="M 10.9375 7.234375 C 11.332031 7.242188 11.726562 7.226562 12.125 7.1875 C 12.519531 7.144531 12.898438 7.046875 13.265625 6.890625 C 14.347656 6.367188 14.71875 5.550781 14.375 4.4375 C 14.1875 3.863281 13.894531 3.335938 13.5 2.859375 C 13.03125 2.265625 12.519531 1.71875 11.96875 1.21875 C 11.414062 0.71875 10.847656 0.238281 10.265625 -0.21875 C 9.929688 -0.46875 9.617188 -0.460938 9.328125 -0.203125 C 8.429688 0.472656 7.625 1.226562 6.90625 2.0625 C 6.59375 2.4375 6.328125 2.847656 6.109375 3.296875 C 5.628906 4.398438 5.859375 5.332031 6.796875 6.09375 C 7.242188 6.4375 7.738281 6.6875 8.28125 6.84375 C 9.132812 7.101562 10.019531 7.234375 10.9375 7.234375 Z M 11.46875 -1.6875 C 11.507812 -1.539062 11.578125 -1.414062 11.671875 -1.3125 C 11.765625 -1.21875 11.863281 -1.140625 11.96875 -1.078125 C 12.039062 -1.023438 12.113281 -0.972656 12.1875 -0.921875 C 12.457031 -0.679688 12.726562 -0.429688 13 -0.171875 C 13.519531 0.273438 14.023438 0.722656 14.515625 1.171875 C 15.210938 1.828125 15.78125 2.582031 16.21875 3.4375 C 16.644531 4.300781 16.753906 5.140625 16.546875 5.953125 C 16.335938 6.765625 15.703125 7.414062 14.640625 7.90625 C 14.191406 8.101562 13.71875 8.238281 13.21875 8.3125 C 12.25 8.425781 11.273438 8.472656 10.296875 8.453125 C 9.328125 8.429688 8.367188 8.289062 7.421875 8.03125 C 6.953125 7.90625 6.503906 7.738281 6.078125 7.53125 C 5.648438 7.332031 5.265625 7.066406 4.921875 6.734375 C 3.679688 5.617188 3.421875 4.304688 4.140625 2.796875 C 4.429688 2.210938 4.800781 1.679688 5.25 1.203125 C 5.976562 0.441406 6.753906 -0.265625 7.578125 -0.921875 C 7.984375 -1.242188 8.179688 -1.476562 8.171875 -1.625 C 8.171875 -1.78125 7.9375 -1.992188 7.46875 -2.265625 C 6.625 -2.828125 5.773438 -3.390625 4.921875 -3.953125 C 4.460938 -4.242188 4.007812 -4.535156 3.5625 -4.828125 C 3.289062 -5.015625 3.015625 -5.195312 2.734375 -5.375 C 2.046875 -5.800781 1.363281 -6.253906 0.6875 -6.734375 C -0.0703125 -7.273438 -0.78125 -7.863281 -1.4375 -8.5 C -2.101562 -9.132812 -2.6875 -9.851562 -3.1875 -10.65625 C -4.21875 -12.320312 -4.597656 -14.023438 -4.328125 -15.765625 C -4.066406 -17.503906 -3.3125 -19.179688 -2.0625 -20.796875 C -0.8125 -22.410156 0.757812 -23.863281 2.65625 -25.15625 C 4.550781 -26.445312 6.609375 -27.492188 8.828125 -28.296875 C 11.046875 -29.097656 13.253906 -29.554688 15.453125 -29.671875 C 17.648438 -29.796875 19.671875 -29.488281 21.515625 -28.75 C 23.359375 -28.007812 24.875 -26.734375 26.0625 -24.921875 C 26.269531 -24.597656 26.445312 -24.25 26.59375 -23.875 C 26.738281 -23.507812 26.8125 -23.117188 26.8125 -22.703125 C 26.8125 -22.285156 26.625 -22.023438 26.25 -21.921875 C 25.988281 -21.859375 25.75 -21.863281 25.53125 -21.9375 C 25.320312 -22.019531 25.160156 -22.144531 25.046875 -22.3125 C 25.035156 -22.363281 25.019531 -22.421875 25 -22.484375 C 24.988281 -22.523438 24.984375 -22.5625 24.984375 -22.59375 C 24.191406 -24.78125 23.019531 -26.335938 21.46875 -27.265625 C 19.914062 -28.203125 18.160156 -28.640625 16.203125 -28.578125 C 14.242188 -28.523438 12.242188 -28.097656 10.203125 -27.296875 C 8.160156 -26.503906 6.238281 -25.492188 4.4375 -24.265625 C 2.644531 -23.035156 1.144531 -21.710938 -0.0625 -20.296875 C -1.28125 -18.878906 -2.035156 -17.503906 -2.328125 -16.171875 C -2.628906 -14.523438 -2.347656 -12.992188 -1.484375 -11.578125 C -0.796875 -10.390625 0.0820312 -9.375 1.15625 -8.53125 C 1.976562 -7.875 2.820312 -7.253906 3.6875 -6.671875 C 4.46875 -6.160156 5.238281 -5.664062 6 -5.1875 C 7.050781 -4.519531 8.082031 -3.84375 9.09375 -3.15625 C 9.382812 -2.9375 9.65625 -2.835938 9.90625 -2.859375 C 10.15625 -2.878906 10.421875 -2.984375 10.703125 -3.171875 C 12.066406 -3.992188 13.410156 -4.75 14.734375 -5.4375 C 16.066406 -6.132812 16.804688 -6.328125 16.953125 -6.015625 C 17.097656 -5.703125 16.882812 -5.335938 16.3125 -4.921875 C 14.976562 -4.222656 13.703125 -3.429688 12.484375 -2.546875 C 12.410156 -2.515625 12.34375 -2.472656 12.28125 -2.421875 C 11.957031 -2.242188 11.6875 -2 11.46875 -1.6875 Z M 11.46875 -1.6875" transform="translate(84.927 202.9)"/></g></g></g><g fill="#2B2B2B"><g><g><path d="M 41.109375 -5.140625 C 40.859375 -4.859375 40.585938 -4.578125 40.296875 -4.296875 C 40.015625 -4.015625 39.804688 -3.8125 39.671875 -3.6875 C 39.242188 -3.300781 38.816406 -2.929688 38.390625 -2.578125 C 37.347656 -1.671875 36.285156 -0.785156 35.203125 0.078125 C 32.773438 2.003906 30.238281 3.789062 27.59375 5.4375 C 23.40625 8.039062 18.863281 9.617188 13.96875 10.171875 C 12.082031 10.410156 10.191406 10.378906 8.296875 10.078125 C 5.847656 9.585938 3.984375 8.691406 2.703125 7.390625 C 1.429688 6.085938 0.660156 4.539062 0.390625 2.75 C 0.128906 0.96875 0.300781 -0.867188 0.90625 -2.765625 C 1.507812 -4.660156 2.46875 -6.441406 3.78125 -8.109375 C 5.414062 -10.148438 7.4375 -11.898438 9.84375 -13.359375 C 12.257812 -14.828125 14.898438 -15.96875 17.765625 -16.78125 C 18.410156 -16.945312 18.804688 -17.09375 18.953125 -17.21875 C 19.109375 -17.351562 19.09375 -17.476562 18.90625 -17.59375 C 18.726562 -17.707031 18.460938 -17.820312 18.109375 -17.9375 C 17.742188 -18.082031 17.363281 -18.25 16.96875 -18.4375 C 16.4375 -18.695312 15.925781 -19.003906 15.4375 -19.359375 C 14.164062 -20.304688 13.429688 -21.367188 13.234375 -22.546875 C 13.035156 -23.734375 13.375 -24.984375 14.25 -26.296875 C 14.332031 -26.410156 14.421875 -26.53125 14.515625 -26.65625 C 14.597656 -26.78125 14.679688 -26.898438 14.765625 -27.015625 C 14.835938 -27.117188 14.851562 -27.210938 14.8125 -27.296875 C 14.78125 -27.378906 14.722656 -27.453125 14.640625 -27.515625 C 14.359375 -27.671875 14.082031 -27.804688 13.8125 -27.921875 C 13.675781 -27.992188 13.546875 -28.066406 13.421875 -28.140625 C 12.148438 -28.742188 10.96875 -29.488281 9.875 -30.375 C 9.65625 -30.5625 9.441406 -30.765625 9.234375 -30.984375 C 9.023438 -31.203125 8.851562 -31.453125 8.71875 -31.734375 C 8.625 -31.898438 8.613281 -32.0625 8.6875 -32.21875 C 8.769531 -32.382812 8.898438 -32.5 9.078125 -32.5625 C 9.316406 -32.644531 9.546875 -32.664062 9.765625 -32.625 C 9.984375 -32.59375 10.171875 -32.484375 10.328125 -32.296875 C 10.628906 -31.878906 11.15625 -31.378906 11.90625 -30.796875 C 12.65625 -30.210938 13.441406 -29.679688 14.265625 -29.203125 C 15.085938 -28.734375 15.75 -28.476562 16.25 -28.4375 C 16.519531 -28.425781 16.8125 -28.488281 17.125 -28.625 C 18.132812 -29.101562 19.300781 -29.472656 20.625 -29.734375 C 21.945312 -29.992188 23.273438 -30.097656 24.609375 -30.046875 C 25.953125 -29.992188 27.15625 -29.742188 28.21875 -29.296875 C 28.789062 -29.066406 29.265625 -28.703125 29.640625 -28.203125 C 30.128906 -27.484375 30.039062 -26.820312 29.375 -26.21875 C 28.863281 -25.820312 28.28125 -25.5625 27.625 -25.4375 C 26.78125 -25.25 25.929688 -25.15625 25.078125 -25.15625 C 24.234375 -25.15625 23.390625 -25.203125 22.546875 -25.296875 C 20.847656 -25.460938 19.195312 -25.820312 17.59375 -26.375 C 17.21875 -26.507812 16.941406 -26.550781 16.765625 -26.5 C 16.585938 -26.445312 16.394531 -26.265625 16.1875 -25.953125 C 15.925781 -25.597656 15.703125 -25.210938 15.515625 -24.796875 C 14.828125 -23.222656 15.113281 -21.859375 16.375 -20.703125 C 16.976562 -20.148438 17.738281 -19.644531 18.65625 -19.1875 C 19.582031 -18.726562 20.546875 -18.390625 21.546875 -18.171875 C 22.546875 -17.960938 23.460938 -17.9375 24.296875 -18.09375 C 24.734375 -18.21875 25.171875 -18.191406 25.609375 -18.015625 C 25.804688 -17.929688 25.90625 -17.773438 25.90625 -17.546875 C 25.90625 -17.304688 25.804688 -17.164062 25.609375 -17.125 C 25.171875 -17.007812 24.734375 -16.921875 24.296875 -16.859375 C 22.335938 -16.617188 20.289062 -16.160156 18.15625 -15.484375 C 16.019531 -14.804688 13.953125 -13.921875 11.953125 -12.828125 C 9.953125 -11.734375 8.1875 -10.421875 6.65625 -8.890625 C 5.132812 -7.367188 4.007812 -5.628906 3.28125 -3.671875 C 2.5625 -1.710938 2.414062 0.453125 2.84375 2.828125 C 3.207031 4.597656 3.894531 5.945312 4.90625 6.875 C 5.914062 7.8125 7.117188 8.429688 8.515625 8.734375 C 9.910156 9.035156 11.367188 9.128906 12.890625 9.015625 C 14.410156 8.910156 15.863281 8.679688 17.25 8.328125 C 18.96875 7.898438 20.617188 7.328125 22.203125 6.609375 C 23.796875 5.898438 25.332031 5.070312 26.8125 4.125 C 28.644531 2.945312 30.429688 1.703125 32.171875 0.390625 C 33.910156 -0.910156 35.640625 -2.242188 37.359375 -3.609375 C 37.421875 -3.660156 37.550781 -3.78125 37.75 -3.96875 C 37.945312 -4.15625 38.179688 -4.375 38.453125 -4.625 C 39.835938 -5.726562 40.6875 -6.207031 41 -6.0625 C 41.1875 -6.019531 41.304688 -5.921875 41.359375 -5.765625 C 41.410156 -5.609375 41.328125 -5.398438 41.109375 -5.140625 Z M 20.203125 -28.421875 C 20.128906 -28.398438 19.976562 -28.347656 19.75 -28.265625 C 19.53125 -28.191406 19.304688 -28.097656 19.078125 -27.984375 C 18.859375 -27.867188 18.707031 -27.753906 18.625 -27.640625 C 18.550781 -27.535156 18.632812 -27.441406 18.875 -27.359375 C 21.207031 -26.523438 23.597656 -26.195312 26.046875 -26.375 C 27.117188 -26.5 27.726562 -26.734375 27.875 -27.078125 C 28.019531 -27.421875 27.847656 -27.757812 27.359375 -28.09375 C 26.867188 -28.425781 26.207031 -28.65625 25.375 -28.78125 C 24.664062 -28.851562 23.835938 -28.863281 22.890625 -28.8125 C 21.953125 -28.769531 21.054688 -28.640625 20.203125 -28.421875 Z M 20.203125 -28.421875" transform="translate(100.1 202.9)"/></g></g></g><g fill="#2B2B2B"><g><g><path d="M 32.765625 -5.109375 C 32.578125 -4.867188 32.367188 -4.632812 32.140625 -4.40625 C 32.023438 -4.269531 31.894531 -4.132812 31.75 -4 C 29.707031 -1.664062 27.554688 0.554688 25.296875 2.671875 C 23.242188 4.609375 21.039062 6.34375 18.6875 7.875 C 17.445312 8.664062 16.160156 9.332031 14.828125 9.875 C 13.492188 10.414062 12.101562 10.804688 10.65625 11.046875 C 9.207031 11.296875 7.757812 11.34375 6.3125 11.1875 C 4.175781 10.894531 2.53125 10.171875 1.375 9.015625 C 0.21875 7.867188 -0.554688 6.453125 -0.953125 4.765625 C -1.347656 3.078125 -1.46875 1.28125 -1.3125 -0.625 C -1.164062 -2.53125 -0.847656 -4.378906 -0.359375 -6.171875 C 0.117188 -7.960938 0.660156 -9.539062 1.265625 -10.90625 C 2.492188 -13.695312 3.941406 -16.34375 5.609375 -18.84375 C 7.285156 -21.34375 9.207031 -23.679688 11.375 -25.859375 C 11.6875 -26.171875 11.816406 -26.375 11.765625 -26.46875 C 11.710938 -26.5625 11.539062 -26.644531 11.25 -26.71875 C 11.113281 -26.726562 10.960938 -26.757812 10.796875 -26.8125 C 10.078125 -27.03125 9.375 -27.265625 8.6875 -27.515625 C 7.507812 -27.910156 6.335938 -28.28125 5.171875 -28.625 C 4.015625 -28.96875 2.84375 -29.25 1.65625 -29.46875 C 0.601562 -29.65625 -0.445312 -29.707031 -1.5 -29.625 C -2.257812 -29.59375 -2.96875 -29.378906 -3.625 -28.984375 C -4.070312 -28.722656 -4.453125 -28.410156 -4.765625 -28.046875 C -5.078125 -27.691406 -5.253906 -27.226562 -5.296875 -26.65625 C -5.359375 -26.125 -5.734375 -25.921875 -6.421875 -26.046875 C -6.867188 -26.109375 -7.09375 -26.378906 -7.09375 -26.859375 C -7.09375 -27.203125 -7.019531 -27.515625 -6.875 -27.796875 C -6.738281 -28.085938 -6.5625 -28.363281 -6.34375 -28.625 C -5.519531 -29.601562 -4.46875 -30.234375 -3.1875 -30.515625 C -1.613281 -30.859375 -0.0234375 -30.921875 1.578125 -30.703125 C 2.753906 -30.523438 3.90625 -30.28125 5.03125 -29.96875 C 6.15625 -29.65625 7.28125 -29.316406 8.40625 -28.953125 C 8.507812 -28.921875 8.601562 -28.898438 8.6875 -28.890625 C 9.03125 -28.765625 9.375 -28.648438 9.71875 -28.546875 C 10.582031 -28.304688 11.429688 -28.03125 12.265625 -27.71875 C 12.585938 -27.59375 12.875 -27.5625 13.125 -27.625 C 13.382812 -27.6875 13.644531 -27.820312 13.90625 -28.03125 C 14.96875 -28.894531 16.109375 -29.617188 17.328125 -30.203125 C 18.898438 -31.015625 20.570312 -31.484375 22.34375 -31.609375 C 22.894531 -31.648438 23.441406 -31.628906 23.984375 -31.546875 C 24.535156 -31.472656 25.054688 -31.316406 25.546875 -31.078125 C 26.359375 -30.671875 26.828125 -30.117188 26.953125 -29.421875 C 27.085938 -28.722656 26.851562 -28.035156 26.25 -27.359375 C 25.695312 -26.765625 25.03125 -26.332031 24.25 -26.0625 C 23.320312 -25.675781 22.359375 -25.453125 21.359375 -25.390625 C 20.359375 -25.328125 19.359375 -25.304688 18.359375 -25.328125 C 17.359375 -25.347656 16.367188 -25.457031 15.390625 -25.65625 C 15.316406 -25.664062 15.242188 -25.679688 15.171875 -25.703125 C 14.816406 -25.785156 14.488281 -25.820312 14.1875 -25.8125 C 13.894531 -25.8125 13.597656 -25.660156 13.296875 -25.359375 C 10.710938 -22.804688 8.445312 -19.945312 6.5 -16.78125 C 4.5625 -13.625 3.015625 -10.332031 1.859375 -6.90625 C 1.429688 -5.695312 1.085938 -4.351562 0.828125 -2.875 C 0.578125 -1.394531 0.488281 0.0820312 0.5625 1.5625 C 0.632812 3.039062 0.945312 4.421875 1.5 5.703125 C 2.0625 6.992188 2.945312 8.070312 4.15625 8.9375 C 5.175781 9.625 6.300781 9.992188 7.53125 10.046875 C 9.351562 10.078125 11.117188 9.785156 12.828125 9.171875 C 14.671875 8.484375 16.394531 7.578125 18 6.453125 C 19.40625 5.484375 20.75 4.441406 22.03125 3.328125 C 23.3125 2.222656 24.570312 1.070312 25.8125 -0.125 C 26.28125 -0.550781 27.066406 -1.28125 28.171875 -2.3125 C 29.285156 -3.351562 30.304688 -4.269531 31.234375 -5.0625 C 31.390625 -5.195312 31.539062 -5.335938 31.6875 -5.484375 C 31.976562 -5.734375 32.234375 -5.9375 32.453125 -6.09375 C 32.679688 -6.25 32.898438 -6.3125 33.109375 -6.28125 C 33.492188 -6.238281 33.378906 -5.847656 32.765625 -5.109375 Z M 22.265625 -30.40625 C 20.972656 -30.21875 19.757812 -29.832031 18.625 -29.25 C 17.488281 -28.664062 16.375 -27.941406 15.28125 -27.078125 C 16.25 -26.742188 17.265625 -26.535156 18.328125 -26.453125 C 19.398438 -26.367188 20.382812 -26.394531 21.28125 -26.53125 C 22.082031 -26.65625 22.84375 -26.894531 23.5625 -27.25 C 24.019531 -27.476562 24.40625 -27.789062 24.71875 -28.1875 C 24.976562 -28.582031 25.0625 -28.957031 24.96875 -29.3125 C 24.875 -29.675781 24.613281 -29.953125 24.1875 -30.140625 C 23.5625 -30.398438 22.921875 -30.488281 22.265625 -30.40625 Z M 22.265625 -30.40625" transform="translate(149.604 202.9)"/></g></g></g><g fill="#2B2B2B"><g><g><path d="M 14.703125 -31.5625 C 13.765625 -32.195312 12.78125 -32.628906 11.75 -32.859375 C 10.726562 -33.085938 9.664062 -33.066406 8.5625 -32.796875 C 7.175781 -32.429688 5.898438 -31.757812 4.734375 -30.78125 C 3.578125 -29.8125 2.65625 -28.617188 1.96875 -27.203125 C 1.289062 -25.796875 0.988281 -24.257812 1.0625 -22.59375 C 1.164062 -20.59375 1.753906 -18.753906 2.828125 -17.078125 C 3.285156 -16.378906 3.78125 -15.703125 4.3125 -15.046875 C 4.519531 -14.753906 4.691406 -14.597656 4.828125 -14.578125 C 4.972656 -14.566406 5.207031 -14.644531 5.53125 -14.8125 C 5.738281 -14.925781 5.945312 -15.003906 6.15625 -15.046875 C 6.375 -15.097656 6.597656 -15.085938 6.828125 -15.015625 C 7.003906 -14.953125 7.117188 -14.851562 7.171875 -14.71875 C 7.234375 -14.59375 7.210938 -14.46875 7.109375 -14.34375 C 7.023438 -14.238281 6.941406 -14.144531 6.859375 -14.0625 C 6.765625 -13.976562 6.675781 -13.890625 6.59375 -13.796875 C 6.4375 -13.609375 6.367188 -13.453125 6.390625 -13.328125 C 6.421875 -13.210938 6.539062 -13.097656 6.75 -12.984375 C 7.695312 -12.390625 8.695312 -11.929688 9.75 -11.609375 C 9.789062 -11.585938 9.828125 -11.578125 9.859375 -11.578125 C 10.066406 -11.503906 10.265625 -11.425781 10.453125 -11.34375 C 10.492188 -11.3125 10.53125 -11.257812 10.5625 -11.1875 C 10.601562 -11.125 10.625 -11.054688 10.625 -10.984375 C 10.625 -10.910156 10.601562 -10.84375 10.5625 -10.78125 C 10.519531 -10.726562 10.472656 -10.671875 10.421875 -10.609375 C 10.210938 -10.492188 9.992188 -10.4375 9.765625 -10.4375 C 9.546875 -10.4375 9.320312 -10.472656 9.09375 -10.546875 C 8.1875 -10.765625 7.3125 -11.085938 6.46875 -11.515625 C 5.863281 -11.847656 5.453125 -11.988281 5.234375 -11.9375 C 5.023438 -11.882812 4.738281 -11.566406 4.375 -10.984375 C 2.113281 -7.515625 0.84375 -3.71875 0.5625 0.40625 C 0.414062 2.3125 0.675781 4.175781 1.34375 6 C 1.664062 6.957031 2.191406 7.800781 2.921875 8.53125 C 4.109375 9.664062 5.5 9.988281 7.09375 9.5 C 7.863281 9.257812 8.585938 8.941406 9.265625 8.546875 C 10.898438 7.523438 12.320312 6.273438 13.53125 4.796875 C 15.082031 2.859375 16.320312 0.753906 17.25 -1.515625 C 17.894531 -3.035156 18.472656 -4.84375 18.984375 -6.9375 C 19.503906 -9.039062 19.878906 -11.28125 20.109375 -13.65625 C 20.335938 -16.03125 20.335938 -18.367188 20.109375 -20.671875 C 19.890625 -22.972656 19.347656 -25.070312 18.484375 -26.96875 C 17.628906 -28.863281 16.367188 -30.394531 14.703125 -31.5625 Z M 18.5 0.59375 C 17.800781 2.019531 16.992188 3.347656 16.078125 4.578125 C 15.160156 5.804688 14.097656 6.929688 12.890625 7.953125 C 11.816406 8.867188 10.628906 9.609375 9.328125 10.171875 C 8.023438 10.742188 6.664062 10.992188 5.25 10.921875 C 2.96875 10.804688 1.234375 9.78125 0.046875 7.84375 C -0.691406 6.570312 -1.15625 5.210938 -1.34375 3.765625 C -1.539062 2.503906 -1.585938 1.25 -1.484375 0 C -1.390625 -1.238281 -1.179688 -2.460938 -0.859375 -3.671875 C -0.0976562 -6.617188 1.160156 -9.320312 2.921875 -11.78125 C 3.046875 -11.957031 3.175781 -12.128906 3.3125 -12.296875 C 3.414062 -12.453125 3.523438 -12.601562 3.640625 -12.75 C 3.796875 -12.988281 3.78125 -13.210938 3.59375 -13.421875 C 3.46875 -13.554688 3.347656 -13.679688 3.234375 -13.796875 C 3.046875 -13.984375 2.859375 -14.1875 2.671875 -14.40625 C 1.753906 -15.4375 0.992188 -16.539062 0.390625 -17.71875 C -0.210938 -18.90625 -0.609375 -20.191406 -0.796875 -21.578125 C -1.203125 -24.515625 -0.519531 -27.15625 1.25 -29.5 C 2.113281 -30.644531 3.101562 -31.59375 4.21875 -32.34375 C 5.34375 -33.101562 6.601562 -33.632812 8 -33.9375 C 9.925781 -34.3125 11.726562 -34.257812 13.40625 -33.78125 C 15.09375 -33.3125 16.628906 -32.367188 18.015625 -30.953125 C 19.441406 -29.453125 20.5 -27.664062 21.1875 -25.59375 C 21.875 -23.519531 22.269531 -21.296875 22.375 -18.921875 C 22.476562 -16.546875 22.363281 -14.15625 22.03125 -11.75 C 21.707031 -9.351562 21.226562 -7.09375 20.59375 -4.96875 C 19.96875 -2.84375 19.269531 -0.988281 18.5 0.59375 Z M 18.5 0.59375" transform="translate(181.784 202.9)"/></g></g></g><g fill="#2B2B2B"><g><g><path d="M 21.359375 -5.53125 C 21.460938 -5.4375 21.546875 -5.34375 21.609375 -5.25 C 21.671875 -5.15625 21.679688 -5.039062 21.640625 -4.90625 C 21.554688 -4.695312 21.40625 -4.585938 21.1875 -4.578125 C 20.945312 -4.546875 20.695312 -4.550781 20.4375 -4.59375 C 19.257812 -4.675781 18.078125 -4.6875 16.890625 -4.625 C 16.378906 -4.59375 15.863281 -4.5625 15.34375 -4.53125 C 15.007812 -4.5625 14.796875 -4.519531 14.703125 -4.40625 C 14.609375 -4.300781 14.546875 -4.078125 14.515625 -3.734375 C 14.421875 -3.046875 14.335938 -2.332031 14.265625 -1.59375 C 14.046875 0.382812 13.769531 2.429688 13.4375 4.546875 C 13.101562 6.660156 12.601562 8.691406 11.9375 10.640625 C 11.28125 12.585938 10.363281 14.3125 9.1875 15.8125 C 8.425781 16.78125 7.507812 17.550781 6.4375 18.125 C 5.351562 18.707031 4.195312 18.867188 2.96875 18.609375 C 1.601562 18.265625 0.757812 17.425781 0.4375 16.09375 C 0.144531 14.75 0.515625 13.617188 1.546875 12.703125 C 2.078125 12.222656 2.679688 12.125 3.359375 12.40625 C 3.515625 12.488281 3.601562 12.601562 3.625 12.75 C 3.65625 12.90625 3.601562 13.03125 3.46875 13.125 C 2.851562 13.46875 2.460938 13.914062 2.296875 14.46875 C 2.140625 15.03125 2.15625 15.582031 2.34375 16.125 C 2.539062 16.664062 2.863281 17.054688 3.3125 17.296875 C 3.757812 17.546875 4.296875 17.539062 4.921875 17.28125 C 5.640625 16.914062 6.269531 16.4375 6.8125 15.84375 C 8.0625 14.425781 9.035156 12.726562 9.734375 10.75 C 10.429688 8.78125 10.957031 6.722656 11.3125 4.578125 C 11.664062 2.429688 11.945312 0.363281 12.15625 -1.625 C 12.226562 -2.257812 12.300781 -2.867188 12.375 -3.453125 C 12.382812 -3.484375 12.390625 -3.523438 12.390625 -3.578125 C 12.421875 -3.742188 12.425781 -3.894531 12.40625 -4.03125 C 12.394531 -4.175781 12.328125 -4.3125 12.203125 -4.4375 C 12.140625 -4.46875 12.082031 -4.5 12.03125 -4.53125 C 11.925781 -4.601562 11.835938 -4.675781 11.765625 -4.75 C 11.691406 -4.820312 11.675781 -4.9375 11.71875 -5.09375 C 11.738281 -5.195312 11.789062 -5.269531 11.875 -5.3125 C 11.957031 -5.363281 12.050781 -5.421875 12.15625 -5.484375 C 12.1875 -5.492188 12.222656 -5.507812 12.265625 -5.53125 C 12.367188 -5.582031 12.441406 -5.648438 12.484375 -5.734375 C 12.523438 -5.816406 12.550781 -5.910156 12.5625 -6.015625 C 12.625 -6.359375 12.660156 -6.710938 12.671875 -7.078125 C 12.773438 -9.316406 12.84375 -11.5625 12.875 -13.8125 C 12.914062 -16.0625 12.863281 -18.316406 12.71875 -20.578125 C 12.71875 -20.710938 12.71875 -20.84375 12.71875 -20.96875 C 12.6875 -21.625 12.628906 -22.09375 12.546875 -22.375 C 12.472656 -22.664062 12.28125 -22.832031 11.96875 -22.875 C 11.664062 -22.914062 11.160156 -22.914062 10.453125 -22.875 C 9.242188 -22.84375 8.050781 -22.953125 6.875 -23.203125 C 6.269531 -23.296875 5.726562 -23.53125 5.25 -23.90625 C 4.59375 -24.5 4.5 -25.175781 4.96875 -25.9375 C 5.34375 -26.539062 5.914062 -27 6.6875 -27.3125 C 7.457031 -27.632812 8.285156 -27.796875 9.171875 -27.796875 C 10.066406 -27.804688 10.914062 -27.648438 11.71875 -27.328125 C 12.53125 -27.003906 13.164062 -26.5 13.625 -25.8125 C 13.695312 -25.664062 13.769531 -25.523438 13.84375 -25.390625 C 13.894531 -25.304688 13.9375 -25.222656 13.96875 -25.140625 C 14.082031 -24.921875 14.175781 -24.769531 14.25 -24.6875 C 14.320312 -24.601562 14.414062 -24.554688 14.53125 -24.546875 C 14.644531 -24.535156 14.800781 -24.5625 15 -24.625 C 16.125 -24.820312 17.242188 -25.035156 18.359375 -25.265625 C 18.617188 -25.316406 18.878906 -25.367188 19.140625 -25.421875 C 19.753906 -25.554688 20.394531 -25.691406 21.0625 -25.828125 C 22.9375 -26.253906 24.84375 -26.601562 26.78125 -26.875 C 28.726562 -27.144531 30.617188 -27.113281 32.453125 -26.78125 C 33.003906 -26.71875 33.523438 -26.546875 34.015625 -26.265625 C 34.097656 -26.210938 34.164062 -26.144531 34.21875 -26.0625 C 34.28125 -25.976562 34.296875 -25.882812 34.265625 -25.78125 C 34.210938 -25.695312 34.148438 -25.617188 34.078125 -25.546875 C 34.003906 -25.472656 33.925781 -25.429688 33.84375 -25.421875 C 33.582031 -25.335938 33.328125 -25.316406 33.078125 -25.359375 C 31.804688 -25.742188 30.316406 -25.882812 28.609375 -25.78125 C 26.898438 -25.675781 25.132812 -25.445312 23.3125 -25.09375 C 21.5 -24.738281 19.769531 -24.375 18.125 -24 C 17.132812 -23.75 16.222656 -23.539062 15.390625 -23.375 C 15.316406 -23.351562 15.257812 -23.335938 15.21875 -23.328125 C 15.175781 -23.304688 15.140625 -23.296875 15.109375 -23.296875 C 14.742188 -23.234375 14.578125 -23.015625 14.609375 -22.640625 C 14.941406 -20.703125 15.097656 -18.5625 15.078125 -16.21875 C 15.054688 -13.882812 14.988281 -11.601562 14.875 -9.375 C 14.820312 -8.414062 14.785156 -7.503906 14.765625 -6.640625 C 14.734375 -6.242188 14.765625 -5.992188 14.859375 -5.890625 C 14.953125 -5.785156 15.179688 -5.742188 15.546875 -5.765625 C 16.367188 -5.765625 17.1875 -5.765625 18 -5.765625 C 18.738281 -5.765625 19.472656 -5.753906 20.203125 -5.734375 C 20.234375 -5.734375 20.265625 -5.734375 20.296875 -5.734375 C 20.492188 -5.753906 20.675781 -5.75 20.84375 -5.71875 C 21.019531 -5.6875 21.191406 -5.625 21.359375 -5.53125 Z M 11.640625 -24.15625 C 12.003906 -24.1875 12.101562 -24.390625 11.9375 -24.765625 C 11.46875 -25.765625 10.753906 -26.359375 9.796875 -26.546875 C 8.835938 -26.742188 7.9375 -26.476562 7.09375 -25.75 C 6.84375 -25.488281 6.738281 -25.242188 6.78125 -25.015625 C 6.832031 -24.785156 7.019531 -24.597656 7.34375 -24.453125 C 7.789062 -24.304688 8.265625 -24.203125 8.765625 -24.140625 C 9.265625 -24.085938 9.832031 -24.0625 10.46875 -24.0625 C 10.5 -24.0625 10.550781 -24.0625 10.625 -24.0625 C 10.882812 -24.09375 11.222656 -24.125 11.640625 -24.15625 Z M 11.640625 -24.15625" transform="translate(205.232 202.9)"/></g></g></g><g fill="#2B2B2B"><g><g><path d="M 21.359375 -5.53125 C 21.460938 -5.4375 21.546875 -5.34375 21.609375 -5.25 C 21.671875 -5.15625 21.679688 -5.039062 21.640625 -4.90625 C 21.554688 -4.695312 21.40625 -4.585938 21.1875 -4.578125 C 20.945312 -4.546875 20.695312 -4.550781 20.4375 -4.59375 C 19.257812 -4.675781 18.078125 -4.6875 16.890625 -4.625 C 16.378906 -4.59375 15.863281 -4.5625 15.34375 -4.53125 C 15.007812 -4.5625 14.796875 -4.519531 14.703125 -4.40625 C 14.609375 -4.300781 14.546875 -4.078125 14.515625 -3.734375 C 14.421875 -3.046875 14.335938 -2.332031 14.265625 -1.59375 C 14.046875 0.382812 13.769531 2.429688 13.4375 4.546875 C 13.101562 6.660156 12.601562 8.691406 11.9375 10.640625 C 11.28125 12.585938 10.363281 14.3125 9.1875 15.8125 C 8.425781 16.78125 7.507812 17.550781 6.4375 18.125 C 5.351562 18.707031 4.195312 18.867188 2.96875 18.609375 C 1.601562 18.265625 0.757812 17.425781 0.4375 16.09375 C 0.144531 14.75 0.515625 13.617188 1.546875 12.703125 C 2.078125 12.222656 2.679688 12.125 3.359375 12.40625 C 3.515625 12.488281 3.601562 12.601562 3.625 12.75 C 3.65625 12.90625 3.601562 13.03125 3.46875 13.125 C 2.851562 13.46875 2.460938 13.914062 2.296875 14.46875 C 2.140625 15.03125 2.15625 15.582031 2.34375 16.125 C 2.539062 16.664062 2.863281 17.054688 3.3125 17.296875 C 3.757812 17.546875 4.296875 17.539062 4.921875 17.28125 C 5.640625 16.914062 6.269531 16.4375 6.8125 15.84375 C 8.0625 14.425781 9.035156 12.726562 9.734375 10.75 C 10.429688 8.78125 10.957031 6.722656 11.3125 4.578125 C 11.664062 2.429688 11.945312 0.363281 12.15625 -1.625 C 12.226562 -2.257812 12.300781 -2.867188 12.375 -3.453125 C 12.382812 -3.484375 12.390625 -3.523438 12.390625 -3.578125 C 12.421875 -3.742188 12.425781 -3.894531 12.40625 -4.03125 C 12.394531 -4.175781 12.328125 -4.3125 12.203125 -4.4375 C 12.140625 -4.46875 12.082031 -4.5 12.03125 -4.53125 C 11.925781 -4.601562 11.835938 -4.675781 11.765625 -4.75 C 11.691406 -4.820312 11.675781 -4.9375 11.71875 -5.09375 C 11.738281 -5.195312 11.789062 -5.269531 11.875 -5.3125 C 11.957031 -5.363281 12.050781 -5.421875 12.15625 -5.484375 C 12.1875 -5.492188 12.222656 -5.507812 12.265625 -5.53125 C 12.367188 -5.582031 12.441406 -5.648438 12.484375 -5.734375 C 12.523438 -5.816406 12.550781 -5.910156 12.5625 -6.015625 C 12.625 -6.359375 12.660156 -6.710938 12.671875 -7.078125 C 12.773438 -9.316406 12.84375 -11.5625 12.875 -13.8125 C 12.914062 -16.0625 12.863281 -18.316406 12.71875 -20.578125 C 12.71875 -20.710938 12.71875 -20.84375 12.71875 -20.96875 C 12.6875 -21.625 12.628906 -22.09375 12.546875 -22.375 C 12.472656 -22.664062 12.28125 -22.832031 11.96875 -22.875 C 11.664062 -22.914062 11.160156 -22.914062 10.453125 -22.875 C 9.242188 -22.84375 8.050781 -22.953125 6.875 -23.203125 C 6.269531 -23.296875 5.726562 -23.53125 5.25 -23.90625 C 4.59375 -24.5 4.5 -25.175781 4.96875 -25.9375 C 5.34375 -26.539062 5.914062 -27 6.6875 -27.3125 C 7.457031 -27.632812 8.285156 -27.796875 9.171875 -27.796875 C 10.066406 -27.804688 10.914062 -27.648438 11.71875 -27.328125 C 12.53125 -27.003906 13.164062 -26.5 13.625 -25.8125 C 13.695312 -25.664062 13.769531 -25.523438 13.84375 -25.390625 C 13.894531 -25.304688 13.9375 -25.222656 13.96875 -25.140625 C 14.082031 -24.921875 14.175781 -24.769531 14.25 -24.6875 C 14.320312 -24.601562 14.414062 -24.554688 14.53125 -24.546875 C 14.644531 -24.535156 14.800781 -24.5625 15 -24.625 C 16.125 -24.820312 17.242188 -25.035156 18.359375 -25.265625 C 18.617188 -25.316406 18.878906 -25.367188 19.140625 -25.421875 C 19.753906 -25.554688 20.394531 -25.691406 21.0625 -25.828125 C 22.9375 -26.253906 24.84375 -26.601562 26.78125 -26.875 C 28.726562 -27.144531 30.617188 -27.113281 32.453125 -26.78125 C 33.003906 -26.71875 33.523438 -26.546875 34.015625 -26.265625 C 34.097656 -26.210938 34.164062 -26.144531 34.21875 -26.0625 C 34.28125 -25.976562 34.296875 -25.882812 34.265625 -25.78125 C 34.210938 -25.695312 34.148438 -25.617188 34.078125 -25.546875 C 34.003906 -25.472656 33.925781 -25.429688 33.84375 -25.421875 C 33.582031 -25.335938 33.328125 -25.316406 33.078125 -25.359375 C 31.804688 -25.742188 30.316406 -25.882812 28.609375 -25.78125 C 26.898438 -25.675781 25.132812 -25.445312 23.3125 -25.09375 C 21.5 -24.738281 19.769531 -24.375 18.125 -24 C 17.132812 -23.75 16.222656 -23.539062 15.390625 -23.375 C 15.316406 -23.351562 15.257812 -23.335938 15.21875 -23.328125 C 15.175781 -23.304688 15.140625 -23.296875 15.109375 -23.296875 C 14.742188 -23.234375 14.578125 -23.015625 14.609375 -22.640625 C 14.941406 -20.703125 15.097656 -18.5625 15.078125 -16.21875 C 15.054688 -13.882812 14.988281 -11.601562 14.875 -9.375 C 14.820312 -8.414062 14.785156 -7.503906 14.765625 -6.640625 C 14.734375 -6.242188 14.765625 -5.992188 14.859375 -5.890625 C 14.953125 -5.785156 15.179688 -5.742188 15.546875 -5.765625 C 16.367188 -5.765625 17.1875 -5.765625 18 -5.765625 C 18.738281 -5.765625 19.472656 -5.753906 20.203125 -5.734375 C 20.234375 -5.734375 20.265625 -5.734375 20.296875 -5.734375 C 20.492188 -5.753906 20.675781 -5.75 20.84375 -5.71875 C 21.019531 -5.6875 21.191406 -5.625 21.359375 -5.53125 Z M 11.640625 -24.15625 C 12.003906 -24.1875 12.101562 -24.390625 11.9375 -24.765625 C 11.46875 -25.765625 10.753906 -26.359375 9.796875 -26.546875 C 8.835938 -26.742188 7.9375 -26.476562 7.09375 -25.75 C 6.84375 -25.488281 6.738281 -25.242188 6.78125 -25.015625 C 6.832031 -24.785156 7.019531 -24.597656 7.34375 -24.453125 C 7.789062 -24.304688 8.265625 -24.203125 8.765625 -24.140625 C 9.265625 -24.085938 9.832031 -24.0625 10.46875 -24.0625 C 10.5 -24.0625 10.550781 -24.0625 10.625 -24.0625 C 10.882812 -24.09375 11.222656 -24.125 11.640625 -24.15625 Z M 11.640625 -24.15625" transform="translate(227.75 202.9)"/></g></g></g><g fill="#2B2B2B"><g><g><path d="M 41.109375 -5.140625 C 40.859375 -4.859375 40.585938 -4.578125 40.296875 -4.296875 C 40.015625 -4.015625 39.804688 -3.8125 39.671875 -3.6875 C 39.242188 -3.300781 38.816406 -2.929688 38.390625 -2.578125 C 37.347656 -1.671875 36.285156 -0.785156 35.203125 0.078125 C 32.773438 2.003906 30.238281 3.789062 27.59375 5.4375 C 23.40625 8.039062 18.863281 9.617188 13.96875 10.171875 C 12.082031 10.410156 10.191406 10.378906 8.296875 10.078125 C 5.847656 9.585938 3.984375 8.691406 2.703125 7.390625 C 1.429688 6.085938 0.660156 4.539062 0.390625 2.75 C 0.128906 0.96875 0.300781 -0.867188 0.90625 -2.765625 C 1.507812 -4.660156 2.46875 -6.441406 3.78125 -8.109375 C 5.414062 -10.148438 7.4375 -11.898438 9.84375 -13.359375 C 12.257812 -14.828125 14.898438 -15.96875 17.765625 -16.78125 C 18.410156 -16.945312 18.804688 -17.09375 18.953125 -17.21875 C 19.109375 -17.351562 19.09375 -17.476562 18.90625 -17.59375 C 18.726562 -17.707031 18.460938 -17.820312 18.109375 -17.9375 C 17.742188 -18.082031 17.363281 -18.25 16.96875 -18.4375 C 16.4375 -18.695312 15.925781 -19.003906 15.4375 -19.359375 C 14.164062 -20.304688 13.429688 -21.367188 13.234375 -22.546875 C 13.035156 -23.734375 13.375 -24.984375 14.25 -26.296875 C 14.332031 -26.410156 14.421875 -26.53125 14.515625 -26.65625 C 14.597656 -26.78125 14.679688 -26.898438 14.765625 -27.015625 C 14.835938 -27.117188 14.851562 -27.210938 14.8125 -27.296875 C 14.78125 -27.378906 14.722656 -27.453125 14.640625 -27.515625 C 14.359375 -27.671875 14.082031 -27.804688 13.8125 -27.921875 C 13.675781 -27.992188 13.546875 -28.066406 13.421875 -28.140625 C 12.148438 -28.742188 10.96875 -29.488281 9.875 -30.375 C 9.65625 -30.5625 9.441406 -30.765625 9.234375 -30.984375 C 9.023438 -31.203125 8.851562 -31.453125 8.71875 -31.734375 C 8.625 -31.898438 8.613281 -32.0625 8.6875 -32.21875 C 8.769531 -32.382812 8.898438 -32.5 9.078125 -32.5625 C 9.316406 -32.644531 9.546875 -32.664062 9.765625 -32.625 C 9.984375 -32.59375 10.171875 -32.484375 10.328125 -32.296875 C 10.628906 -31.878906 11.15625 -31.378906 11.90625 -30.796875 C 12.65625 -30.210938 13.441406 -29.679688 14.265625 -29.203125 C 15.085938 -28.734375 15.75 -28.476562 16.25 -28.4375 C 16.519531 -28.425781 16.8125 -28.488281 17.125 -28.625 C 18.132812 -29.101562 19.300781 -29.472656 20.625 -29.734375 C 21.945312 -29.992188 23.273438 -30.097656 24.609375 -30.046875 C 25.953125 -29.992188 27.15625 -29.742188 28.21875 -29.296875 C 28.789062 -29.066406 29.265625 -28.703125 29.640625 -28.203125 C 30.128906 -27.484375 30.039062 -26.820312 29.375 -26.21875 C 28.863281 -25.820312 28.28125 -25.5625 27.625 -25.4375 C 26.78125 -25.25 25.929688 -25.15625 25.078125 -25.15625 C 24.234375 -25.15625 23.390625 -25.203125 22.546875 -25.296875 C 20.847656 -25.460938 19.195312 -25.820312 17.59375 -26.375 C 17.21875 -26.507812 16.941406 -26.550781 16.765625 -26.5 C 16.585938 -26.445312 16.394531 -26.265625 16.1875 -25.953125 C 15.925781 -25.597656 15.703125 -25.210938 15.515625 -24.796875 C 14.828125 -23.222656 15.113281 -21.859375 16.375 -20.703125 C 16.976562 -20.148438 17.738281 -19.644531 18.65625 -19.1875 C 19.582031 -18.726562 20.546875 -18.390625 21.546875 -18.171875 C 22.546875 -17.960938 23.460938 -17.9375 24.296875 -18.09375 C 24.734375 -18.21875 25.171875 -18.191406 25.609375 -18.015625 C 25.804688 -17.929688 25.90625 -17.773438 25.90625 -17.546875 C 25.90625 -17.304688 25.804688 -17.164062 25.609375 -17.125 C 25.171875 -17.007812 24.734375 -16.921875 24.296875 -16.859375 C 22.335938 -16.617188 20.289062 -16.160156 18.15625 -15.484375 C 16.019531 -14.804688 13.953125 -13.921875 11.953125 -12.828125 C 9.953125 -11.734375 8.1875 -10.421875 6.65625 -8.890625 C 5.132812 -7.367188 4.007812 -5.628906 3.28125 -3.671875 C 2.5625 -1.710938 2.414062 0.453125 2.84375 2.828125 C 3.207031 4.597656 3.894531 5.945312 4.90625 6.875 C 5.914062 7.8125 7.117188 8.429688 8.515625 8.734375 C 9.910156 9.035156 11.367188 9.128906 12.890625 9.015625 C 14.410156 8.910156 15.863281 8.679688 17.25 8.328125 C 18.96875 7.898438 20.617188 7.328125 22.203125 6.609375 C 23.796875 5.898438 25.332031 5.070312 26.8125 4.125 C 28.644531 2.945312 30.429688 1.703125 32.171875 0.390625 C 33.910156 -0.910156 35.640625 -2.242188 37.359375 -3.609375 C 37.421875 -3.660156 37.550781 -3.78125 37.75 -3.96875 C 37.945312 -4.15625 38.179688 -4.375 38.453125 -4.625 C 39.835938 -5.726562 40.6875 -6.207031 41 -6.0625 C 41.1875 -6.019531 41.304688 -5.921875 41.359375 -5.765625 C 41.410156 -5.609375 41.328125 -5.398438 41.109375 -5.140625 Z M 20.203125 -28.421875 C 20.128906 -28.398438 19.976562 -28.347656 19.75 -28.265625 C 19.53125 -28.191406 19.304688 -28.097656 19.078125 -27.984375 C 18.859375 -27.867188 18.707031 -27.753906 18.625 -27.640625 C 18.550781 -27.535156 18.632812 -27.441406 18.875 -27.359375 C 21.207031 -26.523438 23.597656 -26.195312 26.046875 -26.375 C 27.117188 -26.5 27.726562 -26.734375 27.875 -27.078125 C 28.019531 -27.421875 27.847656 -27.757812 27.359375 -28.09375 C 26.867188 -28.425781 26.207031 -28.65625 25.375 -28.78125 C 24.664062 -28.851562 23.835938 -28.863281 22.890625 -28.8125 C 21.953125 -28.769531 21.054688 -28.640625 20.203125 -28.421875 Z M 20.203125 -28.421875" transform="translate(250.27 202.9)"/></g></g></g><g fill="#2B2B2B"><g><g><path d="M 41.109375 -5.140625 C 40.859375 -4.859375 40.585938 -4.578125 40.296875 -4.296875 C 40.015625 -4.015625 39.804688 -3.8125 39.671875 -3.6875 C 39.242188 -3.300781 38.816406 -2.929688 38.390625 -2.578125 C 37.347656 -1.671875 36.285156 -0.785156 35.203125 0.078125 C 32.773438 2.003906 30.238281 3.789062 27.59375 5.4375 C 23.40625 8.039062 18.863281 9.617188 13.96875 10.171875 C 12.082031 10.410156 10.191406 10.378906 8.296875 10.078125 C 5.847656 9.585938 3.984375 8.691406 2.703125 7.390625 C 1.429688 6.085938 0.660156 4.539062 0.390625 2.75 C 0.128906 0.96875 0.300781 -0.867188 0.90625 -2.765625 C 1.507812 -4.660156 2.46875 -6.441406 3.78125 -8.109375 C 5.414062 -10.148438 7.4375 -11.898438 9.84375 -13.359375 C 12.257812 -14.828125 14.898438 -15.96875 17.765625 -16.78125 C 18.410156 -16.945312 18.804688 -17.09375 18.953125 -17.21875 C 19.109375 -17.351562 19.09375 -17.476562 18.90625 -17.59375 C 18.726562 -17.707031 18.460938 -17.820312 18.109375 -17.9375 C 17.742188 -18.082031 17.363281 -18.25 16.96875 -18.4375 C 16.4375 -18.695312 15.925781 -19.003906 15.4375 -19.359375 C 14.164062 -20.304688 13.429688 -21.367188 13.234375 -22.546875 C 13.035156 -23.734375 13.375 -24.984375 14.25 -26.296875 C 14.332031 -26.410156 14.421875 -26.53125 14.515625 -26.65625 C 14.597656 -26.78125 14.679688 -26.898438 14.765625 -27.015625 C 14.835938 -27.117188 14.851562 -27.210938 14.8125 -27.296875 C 14.78125 -27.378906 14.722656 -27.453125 14.640625 -27.515625 C 14.359375 -27.671875 14.082031 -27.804688 13.8125 -27.921875 C 13.675781 -27.992188 13.546875 -28.066406 13.421875 -28.140625 C 12.148438 -28.742188 10.96875 -29.488281 9.875 -30.375 C 9.65625 -30.5625 9.441406 -30.765625 9.234375 -30.984375 C 9.023438 -31.203125 8.851562 -31.453125 8.71875 -31.734375 C 8.625 -31.898438 8.613281 -32.0625 8.6875 -32.21875 C 8.769531 -32.382812 8.898438 -32.5 9.078125 -32.5625 C 9.316406 -32.644531 9.546875 -32.664062 9.765625 -32.625 C 9.984375 -32.59375 10.171875 -32.484375 10.328125 -32.296875 C 10.628906 -31.878906 11.15625 -31.378906 11.90625 -30.796875 C 12.65625 -30.210938 13.441406 -29.679688 14.265625 -29.203125 C 15.085938 -28.734375 15.75 -28.476562 16.25 -28.4375 C 16.519531 -28.425781 16.8125 -28.488281 17.125 -28.625 C 18.132812 -29.101562 19.300781 -29.472656 20.625 -29.734375 C 21.945312 -29.992188 23.273438 -30.097656 24.609375 -30.046875 C 25.953125 -29.992188 27.15625 -29.742188 28.21875 -29.296875 C 28.789062 -29.066406 29.265625 -28.703125 29.640625 -28.203125 C 30.128906 -27.484375 30.039062 -26.820312 29.375 -26.21875 C 28.863281 -25.820312 28.28125 -25.5625 27.625 -25.4375 C 26.78125 -25.25 25.929688 -25.15625 25.078125 -25.15625 C 24.234375 -25.15625 23.390625 -25.203125 22.546875 -25.296875 C 20.847656 -25.460938 19.195312 -25.820312 17.59375 -26.375 C 17.21875 -26.507812 16.941406 -26.550781 16.765625 -26.5 C 16.585938 -26.445312 16.394531 -26.265625 16.1875 -25.953125 C 15.925781 -25.597656 15.703125 -25.210938 15.515625 -24.796875 C 14.828125 -23.222656 15.113281 -21.859375 16.375 -20.703125 C 16.976562 -20.148438 17.738281 -19.644531 18.65625 -19.1875 C 19.582031 -18.726562 20.546875 -18.390625 21.546875 -18.171875 C 22.546875 -17.960938 23.460938 -17.9375 24.296875 -18.09375 C 24.734375 -18.21875 25.171875 -18.191406 25.609375 -18.015625 C 25.804688 -17.929688 25.90625 -17.773438 25.90625 -17.546875 C 25.90625 -17.304688 25.804688 -17.164062 25.609375 -17.125 C 25.171875 -17.007812 24.734375 -16.921875 24.296875 -16.859375 C 22.335938 -16.617188 20.289062 -16.160156 18.15625 -15.484375 C 16.019531 -14.804688 13.953125 -13.921875 11.953125 -12.828125 C 9.953125 -11.734375 8.1875 -10.421875 6.65625 -8.890625 C 5.132812 -7.367188 4.007812 -5.628906 3.28125 -3.671875 C 2.5625 -1.710938 2.414062 0.453125 2.84375 2.828125 C 3.207031 4.597656 3.894531 5.945312 4.90625 6.875 C 5.914062 7.8125 7.117188 8.429688 8.515625 8.734375 C 9.910156 9.035156 11.367188 9.128906 12.890625 9.015625 C 14.410156 8.910156 15.863281 8.679688 17.25 8.328125 C 18.96875 7.898438 20.617188 7.328125 22.203125 6.609375 C 23.796875 5.898438 25.332031 5.070312 26.8125 4.125 C 28.644531 2.945312 30.429688 1.703125 32.171875 0.390625 C 33.910156 -0.910156 35.640625 -2.242188 37.359375 -3.609375 C 37.421875 -3.660156 37.550781 -3.78125 37.75 -3.96875 C 37.945312 -4.15625 38.179688 -4.375 38.453125 -4.625 C 39.835938 -5.726562 40.6875 -6.207031 41 -6.0625 C 41.1875 -6.019531 41.304688 -5.921875 41.359375 -5.765625 C 41.410156 -5.609375 41.328125 -5.398438 41.109375 -5.140625 Z M 20.203125 -28.421875 C 20.128906 -28.398438 19.976562 -28.347656 19.75 -28.265625 C 19.53125 -28.191406 19.304688 -28.097656 19.078125 -27.984375 C 18.859375 -27.867188 18.707031 -27.753906 18.625 -27.640625 C 18.550781 -27.535156 18.632812 -27.441406 18.875 -27.359375 C 21.207031 -26.523438 23.597656 -26.195312 26.046875 -26.375 C 27.117188 -26.5 27.726562 -26.734375 27.875 -27.078125 C 28.019531 -27.421875 27.847656 -27.757812 27.359375 -28.09375 C 26.867188 -28.425781 26.207031 -28.65625 25.375 -28.78125 C 24.664062 -28.851562 23.835938 -28.863281 22.890625 -28.8125 C 21.953125 -28.769531 21.054688 -28.640625 20.203125 -28.421875 Z M 20.203125 -28.421875" transform="translate(290.477 202.9)"/></g></g></g></svg>